<svg 
xmlns="http://www.w3.org/2000/svg" 
data-name="Layer 1" 
viewBox="0 0 64 80" x="0px" y="0px">
<path d="M52.45,11.44l-.06-.06a1,1,0,0,0-1.39,0,1,1,0,0,0,0,1.44l.08.07a1,1,0,0,0,1.6-1.21A3,3,0,0,0,52.45,11.44Z"/>
<path d="M54.62,14.33a1,1,0,1,0-1.76.95,10.2,10.2,0,1,1-4.13-4.13,1,1,0,1,0,.95-1.76,12.28,12.28,0,0,0-14.42,2.11h0l-7.8,7.8a1,1,0,0,0,1.41,1.41l3.08-3.08s0,0,0,.07A12.3,12.3,0,0,0,31.74,19c0,.11,0,.21,0,.32,0,.35,0,.69,0,1,0,.15,0,.3,0,.45q0,.47.09.94c0,.15,0,.29.06.44.06.37.15.74.25,1.11,0,.07,0,.15.05.22a12.17,12.17,0,0,0,.46,1.28c0,.12.11.23.16.35.14.31.29.61.45.9l.24.41c.17.28.36.55.55.82l.26.35a11.21,11.21,0,0,0,2,2l.36.26c.27.19.53.38.81.55l.42.25c.29.16.58.31.87.44l.38.17a12.15,12.15,0,0,0,1.26.45l.29.07c.34.09.68.17,1,.23l.49.07q.43.06.87.09l.51,0h.25c.24,0,.48,0,.71,0l.38,0a12.28,12.28,0,0,0,1.32-.19h.07l-5.08,5.08h0l-4.61,4.61h0l-5,5A1,1,0,1,0,33,48.21l4.74-4.74H44.4a2.84,2.84,0,0,0,.93-5.52l-1.5-.52,8.68-8.68A12.29,12.29,0,0,0,54.62,14.33Zm-10,25.51a.84.84,0,0,1-.27,1.63H39.79L42.25,39Z"/>
<path d="M43.88,11.13a9,9,0,1,0,6.36,2.63A8.94,8.94,0,0,0,43.88,11.13Zm4.95,13.94a7,7,0,1,1,2-4.95A7,7,0,0,1,48.83,25.07Z"/>
<path d="M47.38,17.85a1,1,0,0,0,.8-1.6,2.51,2.51,0,0,0-.26-.28l-.06-.06a.93.93,0,0,0-1.35.06,1.08,1.08,0,0,0,.06,1.47A1,1,0,0,0,47.38,17.85Z"/>
<path d="M47.66,19.93a3.77,3.77,0,0,1-4,4,3.79,3.79,0,1,1,.39-7.57,1,1,0,0,0,.11-2A5.85,5.85,0,0,0,39.77,16a5.79,5.79,0,0,0,3.79,9.88h.35a5.77,5.77,0,0,0,5.75-6.09,1,1,0,1,0-2,.11Z"/>
<path d="M11,52l0,0h0l.46.48A12,12,0,0,0,18.65,56h.12a12.25,12.25,0,0,0,1.38.08,12.12,12.12,0,0,0,8.33-3.31,1,1,0,0,0-1.37-1.46,10.1,10.1,0,0,1-6,2.71l3-3a1,1,0,0,0-1.41-1.41l-4.27,4.27a10,10,0,0,1-5.27-2.6L23.4,41.07A1,1,0,0,0,22,39.66L11.83,49.82a10.26,10.26,0,0,1-.54-11l.34,3.75a1,1,0,0,0,1,.91h.09a1,1,0,0,0,.91-1.09L13,36h0l-.43-4.84.33.08.11,0a3.36,3.36,0,0,0,.54.05h.2l.38,0,.19,0a3.35,3.35,0,0,0,.52-.15l.15-.07a3.32,3.32,0,0,0,.38-.2l.15-.09a3.34,3.34,0,0,0,.47-.38l.06-.06.37.86v0l2,4.85a1,1,0,1,0,1.85-.77h0l9.88-9.88A1,1,0,0,0,28.79,24l-9.3,9.3L18.55,31l5.77-5.77a1,1,0,0,0-1.41-1.41L17.71,29l-.85-2h0a3.33,3.33,0,0,0-.37-.84v0l0-.05a3.19,3.19,0,0,0-.41-.5,3.35,3.35,0,0,0-5.66,1.71,3.15,3.15,0,0,0-.05.64l.05.6v0L11,35.77A12.26,12.26,0,0,0,11,52Zm1.32-24.27a1.38,1.38,0,0,1,.37-.68,1.35,1.35,0,0,1,1.91,0,1.22,1.22,0,0,1,.16.2l0,0a1.29,1.29,0,0,1,.16.38v0a1.47,1.47,0,0,1,0,.17A1.42,1.42,0,0,1,15,28a1.4,1.4,0,0,1,0,.27s0,0,0,.07a1.34,1.34,0,0,1-.08.18,1.32,1.32,0,0,1-.26.4,1.3,1.3,0,0,1-.33.22A1.39,1.39,0,0,1,12.71,29l-.06-.07a.82.82,0,0,1-.22-.36,1.26,1.26,0,0,1-.08-.21l0-.42A1.1,1.1,0,0,1,12.33,27.74Z"/>
<path d="M30,50.88a1,1,0,0,0,.69-.28l.23-.22a1,1,0,1,0-1.38-1.45l-.23.22A1,1,0,0,0,30,50.88Z"/>
<path d="M25.3,21.45l-.23.23a1,1,0,0,0,1.41,1.42l.23-.23a1,1,0,0,0-1.41-1.42Z"/>
<path d="M32.5,42.68l8.27-8.27A1,1,0,0,0,39.35,33l-8.27,8.27a1,1,0,1,0,1.41,1.41Z"/>
<path d="M16.94,51.87a1,1,0,0,0,1.41,0L33.42,36.81A1,1,0,1,0,32,35.39L16.94,50.45A1,1,0,0,0,16.94,51.87Z"/>
<path d="M27.95,36.52l4.19-4.19a1,1,0,0,0-1.41-1.41l-4.19,4.19a1,1,0,1,0,1.41,1.41Z"/>
<path d="M16.07,40.67l-4.45,4.45A1,1,0,1,0,13,46.54l4.45-4.45a1,1,0,0,0-1.41-1.41Z"/>
</svg>