<svg xmlns="http://www.w3.org/2000/svg"
 width="163.839" height="163.839" fill-rule="evenodd" 
 clip-rule="evenodd" image-rendering="optimizeQuality" 
 shape-rendering="geometricPrecision" 
 text-rendering="geometricPrecision" 
 viewBox="0 0 4335 4335" id="oak-leaf">
 <path fill="#093" d="M2596 3313s5 97-25 142c-30 44-64 21-50 80 14 63 25 180-24 168-51-17-55-118-93-86-42 34 52 132 39 169s-42 63-42 108c2 49-23 120-54 112-30-11-18-104-48-119s-66-32-37-87c29-56 62-143 32-140-34 3-76 51-77 84s4 116-10 142-37 43-37 43-5 65-53 94c-44 29-110-17-76-82 32-66-16-26-8-57 9-35 11-101 11-101s-37 16-51 57-56 104-79 109c-27 4-55-3-46-38 5-36 5-65 5-65s-77 25-107 28c-34 3-115-14-49-83 62-69 82-76 97-105 18-29 12-34-33-60-49-27-83-65-36-91 47-25 60-33 110-39s121 19 145 11c24-9-36-35-102-78-67-43-116-96-45-115 72-22 85 29 107-14s73-41 118 0c48 45 103 89 139 94s-25-62-4-86 67-16 139 20c72 37 253-21 253-21l-9 5z"></path>
 <path fill="#063" d="M3670 2485c269-184 608 40 608 40l-23 90s-217-163-381-132c-162 25-332 150-486 285-78 70-153 129-223 172 0 0-287 210-478 371-191 162-716 389-716 389s383-209 563-350c596-452 958-743 958-743 55-38 115-79 179-122z"></path>
 <path fill="#093" d="M1125 2283s-33 85-76 108c-42 24-62-11-75 47s-49 164-86 134c-39-34 2-122-47-110s-11 133-36 162c-26 25-61 35-77 79-18 40-68 94-91 72-23-23 27-96 8-121s-44-51 6-89c46-36 112-98 82-107-30-8-84 12-99 40-14 28-44 101-65 118s-48 22-48 22-31 53-82 61-88-57-37-101c53-40-5-27 15-54s49-83 49-83-36 0-66 27c-28 31-87 69-111 63-24-7-46-19-24-52 20-27 31-53 31-53s-75-8-102-19c-26-11-91-55-10-90 81-36 99-31 124-49 25-19 23-23-5-63s-44-87 6-89c49-2 63-5 107 11s96 62 118 65-16-47-55-106c-41-63-61-127 10-117 72 10 60 62 98 31 34-29 77-8 103 48 23 58 55 116 82 136s5-63 30-73c29-11 64 15 112 73 48 59 223 82 223 82l-12-3z"></path>
 <path fill="#063" d="M2118 2683s-107-52-114-97 60-148 102-236c7-15 11-31 12-46 6-6 18-25 41-64 12-20 34-31 53-62 36-25 80-65 121-107 82-85 177-166 268-189 64-13 150 24 194 45-16-25-38-48-56-70-76-20-178-30-260 39-144 119-304 291-391 299h-10c-73-64-86-73-139-74-146-30-451 120-573 66-81-36-121-261-121-261l8-4c18 167 56 262 109 293-84 22-220 58-306 76-131 28-385 44-385 44s330 12 470-27c140-38 342-76 342-76 43-4 102-17 158-33 113-33 236-57 326-32 60 20 87 45 114 68 9 16 16 33 17 49 0 49-29 107-61 159-16 26-31 54-39 75 0 0-47 96-86 161s-79 232-79 232 43-125 76-187c21-41 58-104 81-143 8 31 51 63 132 95l-3 3z"></path>
 <path fill="#9f3c1c" d="M1974 2986s26 84-25 141-64 59-89 65c-26 5-87-35-106-68-18-33-26-95-26-95s40-116 246-43z"></path>
 <path fill="#633" d="M1866 2853c8 18 3 41 0 46s-31 0-31 0-10-28 2-59c13-31 20-41 31 13h-3z"></path>
 <path fill="#b78955" d="M1987 3029s31-34 2-90-95-53-131-55c-33-2-120-2-143 37s-10 92 3 108c13 15 23-21 107-21 85-1 108-3 159 25l3-3z"></path>
 <path fill="#b85332" d="M1850 3174s-28-23-42-71c-13-46 0-67-1-77 0-13-59 11-59 11s-7 110 103 135l-3 3z"></path>
 <path fill="#80361e" d="M1982 3027s-34-36-131-35-123 39-123 39 115-39 254-2v-3z"></path>
 <path fill="#9f3c1c" d="M2142 2638s47 18 54 61 4 50-3 63-47 27-68 23-52-22-52-22-37-59 69-125z"></path>
 <path fill="#633" d="M2044 2639c11 3 19 13 21 16 1 3-11 14-11 14s-16-5-26-22c-9-17-11-24 17-9l-1 1z"></path>
 <path fill="#b78955" d="M2166 2647s-4-26-40-33c-35-7-58 24-72 39-13 14-44 53-35 77s38 37 49 37-1-18 29-56 37-49 68-63v-2z"></path>
 <path fill="#9f3c1c" d="M1610 2310s100 96 73 213-42 130-73 157-147 18-197-14-108-110-108-110-33-190 305-246z"></path>
 <path fill="#633" d="M1360 2210c24 19 35 54 36 63 0 9-42 24-42 24s-36-31-42-83-4-72 52-6l-4 2z"></path>
 <path fill="#b78955" d="M1661 2360s16-69-66-125c-82-55-171-1-222 23-48 22-167 89-169 160-2 70 57 134 86 145s16-46 132-111 145-86 237-87l2-5z"></path>
 <path fill="#b85332" d="M1582 2663s-56-10-111-67c-53-53-51-91-59-105-10-18-73 59-73 59s74 157 245 107l-2 5z"></path>
 <path fill="#80361e" d="M1652 2360s-73-23-207 52c-133 75-139 147-139 147s128-141 347-195l-2-4z"></path>
 <path fill="#093" d="M2809 1796s-103-83-122-154c-13-71 38-83-32-128-71-45-205-141-147-179 64-38 167 58 173-19 0-71-179-71-205-115-26-45-26-103-71-141-51-38-103-135-64-160 38-26 122 83 167 64s90-38 122 45 90 199 115 160c26-38 19-128-13-154-32-32-122-103-135-141s-6-77-6-77-58-64-45-141c13-71 115-96 154-6 38 90 38 6 64 45 26 38 96 103 96 103s19-51-13-103c-26-51-58-154-38-179 19-32 51-51 83-13s58 64 58 64 45-103 71-135 115-103 128 26c13 128 0 147 13 192s19 45 90 19 141-26 122 45-19 90-58 147c-38 51-128 103-141 135s71-6 173-32c103-26 205-32 160 64s-109 58-83 122-26 109-109 122c-90 6-186 26-224 51-38 32 83 32 90 77 6 45-45 83-147 122-103 38-212 276-212 276h-13zm-333-19s-103 83-173 83c-71 0-71-58-128 6-58 64-179 173-205 109-26-71 90-154 19-173s-109 160-160 179c-51 13-103 0-154 45-51 38-154 71-167 26s103-103 96-147c-6-45-19-96 71-109 83-13 212-45 179-77-32-32-115-45-154-19-38 26-128 96-167 103-38 6-77-6-77-6s-77 45-147 19c-71-26-71-135 26-154 96-13 13-38 58-58 45-19 122-71 122-71s-45-26-103-13c-58 19-160 26-186 0s-45-58 6-83c45-19 77-45 77-45s-90-64-115-96c-26-32-77-135 51-122s147 32 192 26 45-13 38-83c-6-71 6-141 71-109 64 32 83 38 128 90 45 51 77 147 103 167 26 19 13-71 6-173-6-109 13-205 96-141s32 122 103 109c64-13 103 45 96 135-13 90-13 186 6 231s51-77 90-71c45 6 71 64 90 173s224 263 224 263l-13-13z"></path>
 <path fill="#063" d="M3449 2991s-99-142-75-204 181-145 297-226c20-14 36-31 47-50 12-4 75 10 98-52 24-67-16-30 0 0 91 168-76-197-186-299-34-94-51-186-51-186l11-6c8 70 18 132 31 185-30-26-65-47-107-62-256-90-590-160-667-263s32-417 32-417h13c-96 224-115 372-71 449-122-32-320-83-442-122-186-58-519-218-519-218s410 250 615 301 487 147 487 147c58 26 141 51 224 71 167 38 340 96 436 192 62 68 79 119 96 167 0 26-3 54-14 75-35 62-113 115-191 158-39 21-77 46-102 67 0 0-128 88-223 143-96 55-266 238-266 238s144-128 229-183c56-37 148-90 204-124-12 45 19 116 99 215l-6 2z"></path><path fill="#9f3c1c" d="M3051 3291s-27 126-132 161c-105 36-123 30-159 18s-86-107-85-162 34-139 34-139 133-118 342 121z"></path>
 <path fill="#633" d="M3008 3045c-3 28-26 54-32 59-7 5-39-22-39-22s7-43 45-73 55-38 30 38l-3-2z"></path>
 <path fill="#b78955" d="M3037 3355s63-21 66-112c4-92-83-135-127-164-41-27-151-88-208-55-56 33-78 110-73 139s44-10 151 50c108 60 139 73 184 144l5-1z"></path>
 <path fill="#b85332" d="M2760 3440s-20-49-2-120c16-68 47-85 54-98 9-16-82-28-82-28s-87 135 35 245l-5 1z"></path>
 <path fill="#80361e" d="M3032 3348s-17-69-141-138-184-38-184-38 174 32 323 179l2-3z"></path>
 <path fill="#9f3c1c" d="M3520 2951s47 57 25 117-31 66-49 78-79 0-103-20-50-65-50-65-5-102 176-110z"></path>
 <path fill="#633" d="M3395 2883c12 11 15 31 15 36s-24 10-24 10-17-18-17-46 3-38 28 0l-2 1z"></path>
 <path fill="#b78955" d="M3544 2981s13-35-27-70c-40-34-90-11-119-2-26 9-94 36-99 73-6 37 21 74 36 82s11-23 76-50 82-36 131-31l1-3z"></path>
 <path fill="#093" d="M3664 2222s-48-17-62-41c-14-23 5-35-27-41-33-6-93-25-77-46 18-22 69-1 61-28s-75-4-91-18c-14-14-20-34-45-42-23-9-54-37-41-50 12-13 54 14 68 3s28-25 50 2c21 25 57 61 61 44s-8-47-24-55-57-23-67-35c-10-11-13-27-13-27s-30-17-36-45c-5-28 31-50 56-22 23 29 15-3 30 8s47 26 47 26 0-20-16-36c-18-15-40-48-37-61 3-14 10-26 29-14 15 11 30 17 30 17s3-42 9-57 29-52 50-7 19 55 30 69 13 12 35-4 48-26 50 2 4 35-4 60-34 55-35 67 26-10 58-32c35-24 70-36 66 4-5 40-34 35-16 55 17 19 5 43-25 58-32 14-64 33-75 48s36 2 41 16c7 16-7 36-39 64s-43 126-43 126l2-7z"></path>
 <path fill="#9f3c1c" d="M2952 2098s36 118-36 197-89 82-125 89-122-50-147-97c-25-46-36-132-36-132s57-161 343-57z"></path>
 <path fill="#633" d="M2802 1912c11 25 4 57 0 64s-43 0-43 0-14-39 4-82 29-57 43 18h-4z"></path>
 <path fill="#b78955" d="M2970 2159s43-46 4-125-132-75-182-79c-46-4-168-4-200 50s-14 129 4 150 32-29 150-29 150-4 222 36l4-4z"></path>
 <path fill="#b85332" d="M2777 2359s-39-32-57-100c-18-64 0-93 0-107 0-18-82 14-82 14s-11 154 143 190l-4 4z"></path>
 <path fill="#80361e" d="M2963 2155s-46-50-182-50-172 54-172 54 161-54 354 0v-4z"></path>
 <path fill="#093" d="M1351 2190s-41 16-65 9c-22-8-18-25-42-12-25 13-75 36-76 13 0-25 44-38 23-53-20-12-50 40-67 40s-34-10-52-3c-20 8-56 7-57-8s44-21 46-37 4-32 33-28c29 5 72 7 65-7s-34-27-46-22c-15 4-50 18-63 15s-23-11-23-11-28 6-48-11c-18-15-8-49 24-45s8-10 24-11c15-1 46-11 46-11s-12-14-32-13c-19-1-54-9-58-19-6-11-6-23 10-26s28-6 28-6-22-30-27-43-10-50 29-33c39 18 42 25 58 28 15 4 16 2 20-23s16-45 33-28 23 21 33 41c8 20 8 54 15 63s10-21 20-55 25-64 45-35-2 41 21 44 27 26 17 52c-13 27-24 58-23 73 3 16 23-19 37-13s17 27 11 63 44 107 44 107l-2 4z"></path></svg>